<?xml version="1.0" encoding="utf-8"?>
<!-- Generator: Adobe Illustrator 18.0.0, SVG Export Plug-In . SVG Version: 6.00 Build 0)  -->
<!DOCTYPE svg PUBLIC "-//W3C//DTD SVG 1.1//EN" "http://www.w3.org/Graphics/SVG/1.1/DTD/svg11.dtd">
<svg version="1.1" id="Layer_1" xmlns="http://www.w3.org/2000/svg" xmlns:xlink="http://www.w3.org/1999/xlink" x="0px" y="0px"
	 viewBox="0 0 50 50" enable-background="new 0 0 50 50" xml:space="preserve">
<g>
	<g>
		<path fill="#39B54A" d="M39.8,26.1c-0.9-0.2-1.9-0.4-2.9-0.4c-0.1,0-0.2,0-0.4,0c-6,0.2-10.8,5.1-10.9,11.1c0,0.1,0,0.1,0,0.2
			c0,1.2,0.2,2.4,0.5,3.5c1.5,4.5,5.7,7.8,10.8,7.8c6.2,0,11.3-5.1,11.3-11.3C48.1,31.8,44.6,27.4,39.8,26.1z M36.8,44.5
			c-4.1,0-7.5-3.3-7.5-7.5s3.3-7.5,7.5-7.5s7.5,3.3,7.5,7.5S41,44.5,36.8,44.5z"/>
		<polygon fill="#39B54A" points="37.9,31.9 35.4,31.9 35.4,35.9 31.4,35.9 31.4,38.5 35.4,38.5 35.4,42.5 37.9,42.5 37.9,38.5 
			41.9,38.5 41.9,35.9 37.9,35.9 		"/>
		<path fill="#39B54A" d="M11.3,10.2c0.7,0,1.3-0.6,1.3-1.3V5.9V2.9c0-0.7-0.6-1.3-1.3-1.3h-1.1C9.5,1.7,9,2.2,9,2.9v2.9V9
			c0,0.7,0.6,1.3,1.3,1.3H11.3z"/>
		<path fill="#39B54A" d="M31.4,10.2c0.7,0,1.3-0.6,1.3-1.3V5.9V2.9c0-0.7-0.6-1.3-1.3-1.3h-1.1c-0.7,0-1.3,0.6-1.3,1.3v2.9V9
			c0,0.7,0.6,1.3,1.3,1.3H31.4z"/>
		<path fill="#39B54A" d="M22.6,39.4c-0.2-0.9-0.3-1.8-0.3-2.7c0-0.3,0-0.6,0-0.9H7.3c-1.2,0-2.2-1-2.2-2.2V16.1h31.3v6.8
			c0.2,0,0.5,0,0.7,0c0.9,0,1.7,0.1,2.6,0.2V8.8c0-1.6-1.3-2.9-2.9-2.9h-2.4V9c0,1.7-1.4,3.1-3.1,3.1h-1.1c-1.7,0-3.1-1.4-3.1-3.1
			V5.9H14.4V9c0,1.7-1.4,3.1-3.1,3.1h-1.1c-1.7,0-3.1-1.4-3.1-3.1V5.9H4.8c-1.6,0-2.9,1.3-2.9,2.9v27.7c0,1.6,1.3,2.9,2.9,2.9H22.6z
			"/>
		<circle fill="#39B54A" cx="12.1" cy="21.5" r="2.9"/>
		<circle fill="#39B54A" cx="20.8" cy="21.5" r="2.9"/>
		<circle fill="#39B54A" cx="29.5" cy="21.5" r="2.9"/>
		<circle fill="#39B54A" cx="20.8" cy="30.3" r="2.9"/>
		<circle fill="#39B54A" cx="12.1" cy="30.3" r="2.9"/>
	</g>
</g>
</svg>
