<?xml version="1.0" encoding="utf-8"?>
<!-- Generator: Adobe Illustrator 18.0.0, SVG Export Plug-In . SVG Version: 6.00 Build 0)  -->
<!DOCTYPE svg PUBLIC "-//W3C//DTD SVG 1.1//EN" "http://www.w3.org/Graphics/SVG/1.1/DTD/svg11.dtd">
<svg version="1.1" id="Layer_1" xmlns="http://www.w3.org/2000/svg" xmlns:xlink="http://www.w3.org/1999/xlink" x="0px" y="0px"
	 viewBox="0 0 50 50" enable-background="new 0 0 50 50" xml:space="preserve">
<path fill="#39B54A" d="M49,22.4c-0.1-0.4-0.3-0.7-0.6-0.9l-6-4.2v0L26.7,6.9c-0.5-0.3-1.1-0.5-1.7-0.5c-0.6,0-1.2,0.2-1.7,0.5
	L7.8,17.2l-0.2,0.2v0l-6,4.2c-0.6,0.4-0.8,1.3-0.3,1.9C1.5,23.8,1.9,24,2.3,24c0.3,0,0.6-0.1,0.8-0.2l4.4-3.1v19.9c0,1.7,1.4,3,3,3
	h28.9c1.7,0,3-1.4,3-3V20.7l4.4,3.1c0.2,0.2,0.5,0.2,0.8,0.2c0.4,0,0.9-0.2,1.1-0.6C49,23.1,49.1,22.8,49,22.4z M25,24.3
	c-3.1,0-5.5,2.5-5.5,5.5v11.1h-8.9c-0.2,0-0.3-0.1-0.3-0.3V18.8l14.6-9.7c0,0,0.1,0,0.2,0s0.1,0,0.2,0l14.6,9.7v21.8
	c0,0.2-0.1,0.3-0.3,0.3h-8.9V29.8C30.5,26.8,28.1,24.3,25,24.3z M22.2,29.8c0-1.5,1.3-2.8,2.8-2.8s2.8,1.3,2.8,2.8v10.9h-5.6V29.8z"
	/>
</svg>
