<?xml version="1.0" encoding="utf-8"?>
<!-- Generator: Adobe Illustrator 18.0.0, SVG Export Plug-In . SVG Version: 6.00 Build 0)  -->
<!DOCTYPE svg PUBLIC "-//W3C//DTD SVG 1.1//EN" "http://www.w3.org/Graphics/SVG/1.1/DTD/svg11.dtd">
<svg version="1.1" id="Layer_1" xmlns="http://www.w3.org/2000/svg" xmlns:xlink="http://www.w3.org/1999/xlink" x="0px" y="0px"
	 viewBox="0 0 50 50" enable-background="new 0 0 50 50" xml:space="preserve">
<g>
	<g>
		<g>
			<path fill="#39B54A" d="M40,10.3c-3.5-5-8.9-7.9-15-7.9s-11.6,2.9-15,7.9c-3.4,5-4.2,11.3-2.1,16.8c0.6,1.5,1.5,3,2.6,4.4
				L23.8,47c0.3,0.4,0.7,0.6,1.2,0.6c0.5,0,0.9-0.2,1.2-0.6l13.3-15.6c1.2-1.4,2.1-2.9,2.6-4.4C44.2,21.5,43.4,15.2,40,10.3z
				 M39.2,26c-0.4,1.2-1.1,2.3-2.1,3.4c0,0,0,0,0,0L25,43.6L12.9,29.4c-1-1.1-1.7-2.3-2.1-3.4c-1.7-4.6-1.1-9.8,1.8-13.9
				C15.4,7.9,20,5.6,25,5.6c5,0,9.6,2.4,12.4,6.5C40.2,16.2,40.9,21.4,39.2,26z"/>
		</g>
	</g>
	<g>
		<g>
			<path fill="#39B54A" d="M25,11.8c-4.9,0-8.8,4-8.8,8.8s4,8.8,8.8,8.8s8.8-4,8.8-8.8C33.9,15.7,29.9,11.8,25,11.8z M25,26.3
				c-3.1,0-5.7-2.6-5.7-5.7s2.6-5.7,5.7-5.7c3.1,0,5.7,2.6,5.7,5.7S28.1,26.3,25,26.3z"/>
		</g>
	</g>
</g>
</svg>
