<?xml version="1.0" encoding="utf-8"?>
<!-- Generator: Adobe Illustrator 18.0.0, SVG Export Plug-In . SVG Version: 6.00 Build 0)  -->
<!DOCTYPE svg PUBLIC "-//W3C//DTD SVG 1.1//EN" "http://www.w3.org/Graphics/SVG/1.1/DTD/svg11.dtd">
<svg version="1.1" id="Layer_1" xmlns="http://www.w3.org/2000/svg" xmlns:xlink="http://www.w3.org/1999/xlink" x="0px" y="0px"
	 viewBox="0 0 50 50" enable-background="new 0 0 50 50" xml:space="preserve">
<g>
	<g>
		<g>
			<path fill="#39B54A" d="M8.5,27.7c-0.4,0-0.8,0.3-0.8,0.8v3.1c0,0.4,0.3,0.8,0.8,0.8s0.8-0.3,0.8-0.8v-3.1
				C9.2,28,8.9,27.7,8.5,27.7z"/>
		</g>
	</g>
	<g>
		<g>
			<path fill="#39B54A" d="M11.5,29.2c-0.4,0-0.8,0.3-0.8,0.8v3.1c0,0.4,0.3,0.8,0.8,0.8s0.8-0.3,0.8-0.8V30
				C12.3,29.6,12,29.2,11.5,29.2z"/>
		</g>
	</g>
	<g>
		<g>
			<path fill="#39B54A" d="M39.6,33.4c-0.4-0.2-0.8-0.1-1.1,0.2c-0.2,0.3-0.1,0.8,0.2,1c2.1,1.4,2.7,4.3,1.3,6.4
				c-1.4,2.1-4.3,2.7-6.4,1.3c-2.1-1.4-2.7-4.3-1.3-6.4c0.9-1.3,2.3-2,3.8-2c0.4,0,0.8-0.3,0.8-0.8c0-0.4-0.3-0.8-0.8-0.8
				c-3.4,0-6.2,2.8-6.2,6.2c0,3.4,2.8,6.2,6.2,6.2c3.4,0,6.2-2.8,6.2-6.2C42.3,36.4,41.3,34.5,39.6,33.4z"/>
		</g>
	</g>
	<g>
		<g>
			<path fill="#39B54A" d="M45,35.9c-0.7-2.6-2.6-4.7-5-5.8v-17c0-0.3-0.1-0.5-0.4-0.7l-16.9-10c-0.2-0.1-0.5-0.1-0.8,0L5,12.4
				c0,0,0,0,0,0s0,0,0,0c-0.1,0.1-0.1,0.1-0.2,0.2c0,0,0,0,0,0v0c0,0.1-0.1,0.2-0.1,0.3c0,0,0,0,0,0.1c0,0,0,0,0,0.1v20
				c0,0.3,0.1,0.5,0.4,0.7l16.9,10c0,0,0,0,0.1,0c0,0,0,0,0.1,0c0.2,0.1,0.4,0.1,0.5,0c0,0,0,0,0.1,0c0,0,0,0,0.1,0l4.6-2.7
				c1.4,4.9,6.5,7.7,11.4,6.3C43.6,45.9,46.4,40.8,45,35.9z M22.3,4l4,2.4l-5.9,3.5c-0.4,0.2-0.5,0.7-0.3,1.1s0.7,0.5,1.1,0.3
				l6.7-3.9l4,2.4l-15.4,9.1l-4-2.4l6.4-3.8c0.4-0.2,0.5-0.7,0.3-1.1s-0.7-0.5-1.1-0.3l-7.2,4.2l-4-2.4L22.3,4z M15.6,20v5.1l-4-2.3
				v-5.1L15.6,20z M27.2,36.1c-0.2,0.8-0.3,1.6-0.3,2.4c0,0.3,0,0.6,0.1,1l-3.9,2.3v-2.5c0-0.4-0.3-0.8-0.8-0.8s-0.8,0.3-0.8,0.8
				v2.5L6.2,32.6V14.4l4,2.3v6.5c0,0.3,0.1,0.5,0.4,0.7l5.5,3.3c0.1,0.1,0.3,0.1,0.4,0.1c0.4,0,0.8-0.3,0.8-0.8v-5.6l4.4,2.6v12.6
				c0,0.4,0.3,0.8,0.8,0.8s0.8-0.3,0.8-0.8V23.5L37,15.3c0.4-0.2,0.5-0.7,0.3-1.1c-0.2-0.4-0.7-0.5-1.1-0.3l-13.9,8.2l-4.4-2.6
				l15.4-9.1l5.1,3v16C33.5,28.2,28.5,31.2,27.2,36.1z M36.2,46.1c-4.2,0-7.7-3.4-7.7-7.7s3.4-7.7,7.7-7.7s7.7,3.4,7.7,7.7
				C43.8,42.7,40.4,46.1,36.2,46.1z"/>
		</g>
	</g>
	<g>
		<g>
			<path fill="#39B54A" d="M39,36.4c-0.3-0.3-0.8-0.3-1.1,0L35,39.3l-0.6-0.6c-0.3-0.3-0.8-0.3-1.1,0c-0.3,0.3-0.3,0.8,0,1.1
				l1.2,1.2c0.3,0.3,0.8,0.3,1.1,0l3.5-3.5C39.3,37.2,39.3,36.7,39,36.4z"/>
		</g>
	</g>
</g>
</svg>
