<?xml version="1.0" encoding="utf-8"?>
<!-- Generator: Adobe Illustrator 18.0.0, SVG Export Plug-In . SVG Version: 6.00 Build 0)  -->
<!DOCTYPE svg PUBLIC "-//W3C//DTD SVG 1.1//EN" "http://www.w3.org/Graphics/SVG/1.1/DTD/svg11.dtd">
<svg version="1.1" id="Layer_1" xmlns="http://www.w3.org/2000/svg" xmlns:xlink="http://www.w3.org/1999/xlink" x="0px" y="0px"
	 viewBox="0 0 50 50" enable-background="new 0 0 50 50" xml:space="preserve">
<path fill="#39B54A" d="M29.5,2.5c-10,0-18.1,8.1-18.1,18.1c0,4,1.3,7.9,3.8,11L3,43.8c-0.4,0.4-0.6,0.9-0.6,1.5
	c0,0.6,0.2,1.1,0.6,1.5c0.4,0.4,0.9,0.6,1.5,0.6c0.6,0,1.1-0.2,1.5-0.6l12.2-12.2c3.2,2.6,7.2,4,11.3,4c10,0,18.1-8.1,18.1-18.1
	S39.5,2.5,29.5,2.5z M29.5,34.4c-7.6,0-13.8-6.2-13.8-13.8S21.9,6.8,29.5,6.8S43.3,13,43.3,20.6S37.1,34.4,29.5,34.4z"/>
</svg>
