<?xml version="1.0" encoding="utf-8"?>
<!-- Generator: Adobe Illustrator 18.0.0, SVG Export Plug-In . SVG Version: 6.00 Build 0)  -->
<!DOCTYPE svg PUBLIC "-//W3C//DTD SVG 1.1//EN" "http://www.w3.org/Graphics/SVG/1.1/DTD/svg11.dtd">
<svg version="1.1" id="Layer_1" xmlns="http://www.w3.org/2000/svg" xmlns:xlink="http://www.w3.org/1999/xlink" x="0px" y="0px"
	 viewBox="0 0 50 50" enable-background="new 0 0 50 50" xml:space="preserve">
<g>
	<g>
		<path fill="#39B54A" d="M38.9,9.9h3.7v29.3h-3.7V9.9z M31.5,11L31,11.1c-0.6,0.2-1.4-0.1-1.7-0.6c-0.1-0.3-0.1-0.5,0-0.8
			c0.1-0.3,0.4-0.5,0.8-0.7l5.8-1.8l0.7,5.1c0,0.3,0,0.5-0.2,0.8c-0.2,0.3-0.6,0.4-0.9,0.5c0,0-0.1,0-0.1,0c-0.7,0-1.2-0.4-1.3-1
			l-0.1-0.8c-6.7,9.2-22,19.1-22.7,19.6c-0.2,0.1-0.5,0.2-0.8,0.2c-0.4,0-0.7-0.1-1-0.4c-0.2-0.2-0.3-0.5-0.3-0.8
			c0-0.3,0.2-0.6,0.5-0.8C9.8,29.6,25,19.7,31.5,11z M35.9,16.4v22.8h-3.7V16.4H35.9z M29.4,23.2v16h-3.7v-16H29.4z M22.7,30.2v9H19
			v-9H22.7z M15.7,33.8v5.5H12v-5.5H15.7z M43.7,42.8H6.3V40h37.5L43.7,42.8L43.7,42.8z"/>
	</g>
</g>
</svg>
