<?xml version="1.0" encoding="utf-8"?>
<!-- Generator: Adobe Illustrator 18.0.0, SVG Export Plug-In . SVG Version: 6.00 Build 0)  -->
<!DOCTYPE svg PUBLIC "-//W3C//DTD SVG 1.1//EN" "http://www.w3.org/Graphics/SVG/1.1/DTD/svg11.dtd">
<svg version="1.1" id="Layer_1" xmlns="http://www.w3.org/2000/svg" xmlns:xlink="http://www.w3.org/1999/xlink" x="0px" y="0px"
	 viewBox="0 0 50 50" enable-background="new 0 0 50 50" xml:space="preserve">
<g>
	<path fill="#39B54A" d="M42.9,8c-5.5-5.4-14.6-1.4-14.7,6c0,3,1.4,5.8,4,7.4c0.5,0.3,0.4,0.2,3.5,5.7c0.1,0.1,0.1,0.2,0.2,0.3
		l-4.6,4.4c-1.7-1.6-4.4-1.3-5.7,0.6l-6.1-3.6c0-2-1.6-3.6-3.7-3.6c-3.2,0-4.8,3.8-2.7,6.1l-4,6c-2.3-0.7-4.7,1.1-4.7,3.5
		c0,2,1.6,3.7,3.7,3.7c3.5,0,5-4.5,2.2-6.6l3.9-5.8c1.9,1,4.3,0.1,5.1-1.9l5.9,3.5c-0.5,2.3,1.3,4.4,3.6,4.4c2.7,0,4.4-2.8,3.3-5.2
		c5.6-5.4,5.2-5,5.3-5.1c0.3-0.1,0.6-0.3,0.7-0.6c3.1-5.5,3-5.4,3.5-5.7c2.5-1.6,3.9-4.3,3.9-7.3C45.5,11.8,44.6,9.6,42.9,8z
		 M10.5,40.9c0,1.3-1.1,2.4-2.4,2.4s-2.4-1.1-2.4-2.4c0-1.3,1.1-2.4,2.4-2.4S10.5,39.6,10.5,40.9z M13.9,30.2
		c-1.1-1.5,0-3.7,1.9-3.7c1.3,0,2.4,1.1,2.4,2.4C18.2,31.1,15.2,32.1,13.9,30.2z M28.7,36.8c-1.6,0-2.5-1.5-2.4-2.4
		c0-2.1,2.5-3.1,4-1.7C31.9,34.2,30.8,36.8,28.7,36.8z M40.9,20.4c-0.4,0.3-0.8,0.6-1,1.1c-3.1,5.5-2.9,5.2-3,5.2
		c-0.1,0,0.1,0.3-3-5.2c-0.2-0.4-0.6-0.8-1-1.1c-2.2-1.4-3.4-3.8-3.4-6.4c0.1-6.5,8-9.8,12.7-5.2C45.4,12.2,44.9,17.8,40.9,20.4z"/>
	<path fill="#39B54A" d="M41.7,10.6c-2-2.8-5.8-3.2-8.4-1.3C30.7,11.2,30,15,32,17.7c2.1,2.9,6.2,3.2,8.8,0.9
		c0.3-0.2,0.3-0.6,0.1-0.9c-0.2-0.3-0.6-0.3-0.9-0.1c-2.1,1.8-5.3,1.5-6.9-0.7c-1.6-2.1-1.1-5.1,1-6.6c2.1-1.5,5-1.2,6.6,1
		c1,1.4,1.2,3.2,0.6,4.6c-0.1,0.3,0,0.7,0.3,0.8c0.3,0.1,0.7,0,0.8-0.3C43.2,14.6,43,12.4,41.7,10.6z"/>
</g>
</svg>
