<?xml version="1.0" encoding="utf-8"?>
<!-- Generator: Adobe Illustrator 18.0.0, SVG Export Plug-In . SVG Version: 6.00 Build 0)  -->
<!DOCTYPE svg PUBLIC "-//W3C//DTD SVG 1.1//EN" "http://www.w3.org/Graphics/SVG/1.1/DTD/svg11.dtd">
<svg version="1.1" id="Layer_1" xmlns="http://www.w3.org/2000/svg" xmlns:xlink="http://www.w3.org/1999/xlink" x="0px" y="0px"
	 viewBox="0 0 50 50" enable-background="new 0 0 50 50" xml:space="preserve">
<g>
	<g>
		<g>
			<path fill="#39B54A" d="M42.7,25.2v-5.5c0-1.9-1.4-3.4-3.3-3.5l-5.1-8.9c-0.5-0.8-1.2-1.4-2.1-1.7c-0.9-0.2-1.9-0.1-2.7,0.4
				L12.1,16.1H9c-2,0-3.5,1.6-3.5,3.5V41c0,2,1.6,3.5,3.5,3.5h30.2c2,0,3.5-1.6,3.5-3.5v-5.5c1-0.4,1.8-1.3,1.8-2.5v-5.3
				C44.5,26.5,43.8,25.5,42.7,25.2z M30.5,7.5c0.4-0.2,0.9-0.3,1.3-0.2c0.5,0.1,0.8,0.4,1.1,0.8l1.7,3c-0.8,0.4-1.6,0.5-2.5,0.5
				c-1.9,0-3.7-0.9-4.8-2.3L30.5,7.5z M25.7,10.2c1.5,2,3.8,3.2,6.4,3.2c1.2,0,2.3-0.3,3.4-0.8l2,3.4H15.6L25.7,10.2z M41,41
				c0,1-0.8,1.8-1.8,1.8H9c-1,0-1.8-0.8-1.8-1.8V19.7c0-1,0.8-1.8,1.8-1.8h30.2c1,0,1.8,0.8,1.8,1.8V25h-5.3c-2.9,0-5.3,2.4-5.3,5.3
				s2.4,5.3,5.3,5.3H41L41,41L41,41z M42.7,33c0,0.5-0.4,0.9-0.9,0.9h-6.2c-2,0-3.5-1.6-3.5-3.5c0-2,1.6-3.5,3.5-3.5h6.2
				c0.5,0,0.9,0.4,0.9,0.9V33z"/>
			<path fill="#39B54A" d="M35.6,28.5c-1,0-1.8,0.8-1.8,1.8s0.8,1.8,1.8,1.8c1,0,1.8-0.8,1.8-1.8C37.4,29.3,36.6,28.5,35.6,28.5z"/>
		</g>
	</g>
</g>
</svg>
